{
  "accessors": [
    {
      "name": "Cylinder.001-Mesh_0_positions",
      "componentType": 5126,
      "count": 303,
      "min": [
        -19.908058166503906,
        5.557106018066406,
        8.364293098449707
      ],
      "max": [
        15.60704231262207,
        8.719198226928711,
        12.284157752990723
      ],
      "type": "VEC3",
      "bufferView": 0,
      "byteOffset": 0
    },
    {
      "name": "Cylinder.001-Mesh_0_texcoords",
      "componentType": 5126,
      "count": 303,
      "min": [
        0.13866500556468964,
        0.43137601017951965
      ],
      "max": [
        1.086527943611145,
        0.9439560174942017
      ],
      "type": "VEC2",
      "bufferView": 1,
      "byteOffset": 0
    },
    {
      "name": "Cylinder.001-Mesh_0_indices",
      "componentType": 5123,
      "count": 1266,
      "min": [
        0
      ],
      "max": [
        273
      ],
      "type": "SCALAR",
      "bufferView": 2,
      "byteOffset": 0
    },
    {
      "name": "Cylinder.001-Mesh_1_positions",
      "componentType": 5126,
      "count": 473,
      "min": [
        -19.908056259155273,
        5.557106971740723,
        8.660805702209473
      ],
      "max": [
        15.706670761108398,
        8.719198226928711,
        13.50605297088623
      ],
      "type": "VEC3",
      "bufferView": 0,
      "byteOffset": 3636
    },
    {
      "name": "Cylinder.001-Mesh_1_texcoords",
      "componentType": 5126,
      "count": 473,
      "min": [
        -0.2510739862918854,
        0.31388500332832336
      ],
      "max": [
        0.859188973903656,
        0.7679200172424316
      ],
      "type": "VEC2",
      "bufferView": 1,
      "byteOffset": 2424
    },
    {
      "name": "Cylinder.001-Mesh_1_indices",
      "componentType": 5123,
      "count": 1416,
      "min": [
        0
      ],
      "max": [
        347
      ],
      "type": "SCALAR",
      "bufferView": 2,
      "byteOffset": 2532
    },
    {
      "name": "Cylinder.001-Mesh_2_positions",
      "componentType": 5126,
      "count": 240,
      "min": [
        -14.027416229248047,
        1.700387954711914,
        5.3904008865356445
      ],
      "max": [
        15.306407928466797,
        12.591837882995605,
        16.355892181396484
      ],
      "type": "VEC3",
      "bufferView": 0,
      "byteOffset": 9312
    },
    {
      "name": "Cylinder.001-Mesh_2_texcoords",
      "componentType": 5126,
      "count": 240,
      "min": [
        0.0006360000115819275,
        0.007786999922245741
      ],
      "max": [
        0.9481279850006104,
        0.36313700675964355
      ],
      "type": "VEC2",
      "bufferView": 1,
      "byteOffset": 6208
    },
    {
      "name": "Cylinder.001-Mesh_2_indices",
      "componentType": 5123,
      "count": 1296,
      "min": [
        0
      ],
      "max": [
        239
      ],
      "type": "SCALAR",
      "bufferView": 2,
      "byteOffset": 5364
    }
  ],
  "asset": {
    "generator": "obj2gltf",
    "version": "2.0"
  },
  "buffers": [
    {
      "name": "AVMT300",
      "byteLength": 28276,
      "uri": "data:application/octet-stream;base64,"
    }
  ],
  "bufferViews": [
    {
      "name": "bufferView_0",
      "buffer": 0,
      "byteLength": 12192,
      "byteOffset": 0,
      "byteStride": 12,
      "target": 34962
    },
    {
      "name": "bufferView_1",
      "buffer": 0,
      "byteLength": 8128,
      "byteOffset": 12192,
      "byteStride": 8,
      "target": 34962
    },
    {
      "name": "bufferView_2",
      "buffer": 0,
      "byteLength": 7956,
      "byteOffset": 20320,
      "target": 34963
    }
  ],
  "materials": [
    {
      "name": "Material.002",
      "pbrMetallicRoughness": {
        "baseColorFactor": [
          0.64,
          0.64,
          0.64,
          1
        ],
        "metallicFactor": 0,
        "roughnessFactor": 0.903921569
      },
      "emissiveFactor": [
        0,
        0,
        0
      ],
      "alphaMode": "OPAQUE",
      "doubleSided": false
    },
    {
      "name": "Material.004",
      "pbrMetallicRoughness": {
        "baseColorFactor": [
          0.64,
          0.64,
          0.64,
          1
        ],
        "metallicFactor": 0,
        "roughnessFactor": 0.903921569
      },
      "emissiveFactor": [
        0,
        0,
        0
      ],
      "alphaMode": "OPAQUE",
      "doubleSided": false
    },
    {
      "name": "Material.001",
      "pbrMetallicRoughness": {
        "baseColorFactor": [
          0.64,
          0.64,
          0.64,
          1
        ],
        "metallicFactor": 0,
        "roughnessFactor": 0.903921569
      },
      "emissiveFactor": [
        0,
        0,
        0
      ],
      "alphaMode": "OPAQUE",
      "doubleSided": false
    }
  ],
  "meshes": [
    {
      "name": "Cylinder.001-Mesh",
      "primitives": [
        {
          "attributes": {
            "POSITION": 0,
            "TEXCOORD_0": 1
          },
          "indices": 2,
          "material": 0,
          "mode": 4
        },
        {
          "attributes": {
            "POSITION": 3,
            "TEXCOORD_0": 4
          },
          "indices": 5,
          "material": 1,
          "mode": 4
        },
        {
          "attributes": {
            "POSITION": 6,
            "TEXCOORD_0": 7
          },
          "indices": 8,
          "material": 2,
          "mode": 4
        }
      ]
    }
  ],
  "nodes": [
    {
      "name": "Cylinder.001",
      "mesh": 0
    }
  ],
  "scene": 0,
  "scenes": [
    {
      "nodes": [
        0
      ]
    }
  ]
}
