{
  "accessors": [
    {
      "name": "Box01_1_0_positions",
      "componentType": 5126,
      "count": 32885,
      "min": [
        -106.0623550415039,
        -208.13851928710938,
        -66.31460571289062
      ],
      "max": [
        12.566871643066406,
        -169.96763610839844,
        59.31461715698242
      ],
      "type": "VEC3",
      "bufferView": 0,
      "byteOffset": 0
    },
    {
      "name": "Box01_1_0_normals",
      "componentType": 5126,
      "count": 32885,
      "min": [
        -1,
        -1,
        -1
      ],
      "max": [
        1,
        1,
        1
      ],
      "type": "VEC3",
      "bufferView": 1,
      "byteOffset": 0
    },
    {
      "name": "Box01_1_0_texcoords",
      "componentType": 5126,
      "count": 32885,
      "min": [
        0,
        0
      ],
      "max": [
        1,
        1
      ],
      "type": "VEC2",
      "bufferView": 2,
      "byteOffset": 0
    },
    {
      "name": "Box01_1_0_indices",
      "componentType": 5123,
      "count": 63768,
      "min": [
        0
      ],
      "max": [
        32884
      ],
      "type": "SCALAR",
      "bufferView": 3,
      "byteOffset": 0
    },
    {
      "name": "Box02_1_0_positions",
      "componentType": 5126,
      "count": 1558,
      "min": [
        -106.0623550415039,
        -271.7743225097656,
        -59.31460952758789
      ],
      "max": [
        12.566871643066406,
        -206.0552978515625,
        59.31461715698242
      ],
      "type": "VEC3",
      "bufferView": 0,
      "byteOffset": 394620
    },
    {
      "name": "Box02_1_0_normals",
      "componentType": 5126,
      "count": 1558,
      "min": [
        -1,
        -1,
        -1
      ],
      "max": [
        1,
        1,
        1
      ],
      "type": "VEC3",
      "bufferView": 1,
      "byteOffset": 394620
    },
    {
      "name": "Box02_1_0_texcoords",
      "componentType": 5126,
      "count": 1558,
      "min": [
        0,
        0
      ],
      "max": [
        1,
        1
      ],
      "type": "VEC2",
      "bufferView": 2,
      "byteOffset": 263080
    },
    {
      "name": "Box02_1_0_indices",
      "componentType": 5123,
      "count": 5040,
      "min": [
        0
      ],
      "max": [
        1557
      ],
      "type": "SCALAR",
      "bufferView": 3,
      "byteOffset": 127536
    },
    {
      "name": "Cylinder03_1_0_positions",
      "componentType": 5126,
      "count": 11596,
      "min": [
        -187.48184204101562,
        -370.9146423339844,
        -138.59600830078125
      ],
      "max": [
        93.98635864257812,
        -241.2557830810547,
        138.59600830078125
      ],
      "type": "VEC3",
      "bufferView": 0,
      "byteOffset": 413316
    },
    {
      "name": "Cylinder03_1_0_normals",
      "componentType": 5126,
      "count": 11596,
      "min": [
        -0.9894258379936218,
        -1,
        -0.9999297261238098
      ],
      "max": [
        0.9894258379936218,
        1,
        0.9999300241470337
      ],
      "type": "VEC3",
      "bufferView": 1,
      "byteOffset": 413316
    },
    {
      "name": "Cylinder03_1_0_texcoords",
      "componentType": 5126,
      "count": 11596,
      "min": [
        0.02777799963951111,
        0
      ],
      "max": [
        1.0277780294418335,
        1
      ],
      "type": "VEC2",
      "bufferView": 2,
      "byteOffset": 275544
    },
    {
      "name": "Cylinder03_1_0_indices",
      "componentType": 5123,
      "count": 17496,
      "min": [
        0
      ],
      "max": [
        11595
      ],
      "type": "SCALAR",
      "bufferView": 3,
      "byteOffset": 137616
    },
    {
      "name": "Cylinder04_1_0_positions",
      "componentType": 5126,
      "count": 249,
      "min": [
        -121.14920043945312,
        -370.9146423339844,
        -73.2711410522461
      ],
      "max": [
        27.653709411621094,
        -269.1988525390625,
        73.27117156982422
      ],
      "type": "VEC3",
      "bufferView": 0,
      "byteOffset": 552468
    },
    {
      "name": "Cylinder04_1_0_normals",
      "componentType": 5126,
      "count": 249,
      "min": [
        -0.9999781847000122,
        -1,
        -0.9847861528396606
      ],
      "max": [
        0.9999781847000122,
        1,
        0.984786331653595
      ],
      "type": "VEC3",
      "bufferView": 1,
      "byteOffset": 552468
    },
    {
      "name": "Cylinder04_1_0_texcoords",
      "componentType": 5126,
      "count": 249,
      "min": [
        -0.02777799963951111,
        0
      ],
      "max": [
        0.9722219705581665,
        1
      ],
      "type": "VEC2",
      "bufferView": 2,
      "byteOffset": 368312
    },
    {
      "name": "Cylinder04_1_0_indices",
      "componentType": 5123,
      "count": 1188,
      "min": [
        0
      ],
      "max": [
        248
      ],
      "type": "SCALAR",
      "bufferView": 3,
      "byteOffset": 172608
    },
    {
      "name": "Hedra01_1_0_positions",
      "componentType": 5126,
      "count": 392,
      "min": [
        -94.12470245361328,
        -202.58839416503906,
        -39.122337341308594
      ],
      "max": [
        -17.410030364990234,
        -169.8142852783203,
        39.122337341308594
      ],
      "type": "VEC3",
      "bufferView": 0,
      "byteOffset": 555456
    },
    {
      "name": "Hedra01_1_0_normals",
      "componentType": 5126,
      "count": 392,
      "min": [
        -0.866025447845459,
        -1,
        -0.866025447845459
      ],
      "max": [
        0.866025447845459,
        0.8779087662696838,
        0.866025447845459
      ],
      "type": "VEC3",
      "bufferView": 1,
      "byteOffset": 555456
    },
    {
      "name": "Hedra01_1_0_texcoords",
      "componentType": 5126,
      "count": 392,
      "min": [
        -0.5,
        0.5
      ],
      "max": [
        0.5,
        1.5
      ],
      "type": "VEC2",
      "bufferView": 2,
      "byteOffset": 370304
    },
    {
      "name": "Hedra01_1_0_indices",
      "componentType": 5123,
      "count": 594,
      "min": [
        0
      ],
      "max": [
        391
      ],
      "type": "SCALAR",
      "bufferView": 3,
      "byteOffset": 174984
    },
    {
      "name": "Hedra02_1_0_positions",
      "componentType": 5126,
      "count": 388,
      "min": [
        -92.59469604492188,
        -179.61050415039062,
        -39.122337341308594
      ],
      "max": [
        -15.880023956298828,
        -146.83639526367188,
        39.122337341308594
      ],
      "type": "VEC3",
      "bufferView": 0,
      "byteOffset": 560160
    },
    {
      "name": "Hedra02_1_0_normals",
      "componentType": 5126,
      "count": 388,
      "min": [
        -0.866025447845459,
        -0.877909243106842,
        -0.866025447845459
      ],
      "max": [
        0.8660256862640381,
        1,
        0.866025447845459
      ],
      "type": "VEC3",
      "bufferView": 1,
      "byteOffset": 560160
    },
    {
      "name": "Hedra02_1_0_texcoords",
      "componentType": 5126,
      "count": 388,
      "min": [
        -0.5,
        0.5
      ],
      "max": [
        0.5,
        1.5
      ],
      "type": "VEC2",
      "bufferView": 2,
      "byteOffset": 373440
    },
    {
      "name": "Hedra02_1_0_indices",
      "componentType": 5123,
      "count": 594,
      "min": [
        0
      ],
      "max": [
        387
      ],
      "type": "SCALAR",
      "bufferView": 3,
      "byteOffset": 176172
    },
    {
      "name": "Cylinder01_1_0_positions",
      "componentType": 5126,
      "count": 1410,
      "min": [
        -90.78981018066406,
        -183.1407012939453,
        -70.09278869628906
      ],
      "max": [
        28.88519287109375,
        -50.894439697265625,
        70.0927963256836
      ],
      "type": "VEC3",
      "bufferView": 0,
      "byteOffset": 564816
    },
    {
      "name": "Cylinder01_1_0_normals",
      "componentType": 5126,
      "count": 1410,
      "min": [
        -0.9779502153396606,
        -0.9880965948104858,
        -0.9973276853561401
      ],
      "max": [
        0.8467878699302673,
        0.8452407717704773,
        0.997327446937561
      ],
      "type": "VEC3",
      "bufferView": 1,
      "byteOffset": 564816
    },
    {
      "name": "Cylinder01_1_0_texcoords",
      "componentType": 5126,
      "count": 1410,
      "min": [
        0,
        0
      ],
      "max": [
        1,
        1
      ],
      "type": "VEC2",
      "bufferView": 2,
      "byteOffset": 376544
    },
    {
      "name": "Cylinder01_1_0_indices",
      "componentType": 5123,
      "count": 2010,
      "min": [
        0
      ],
      "max": [
        1409
      ],
      "type": "SCALAR",
      "bufferView": 3,
      "byteOffset": 177360
    },
    {
      "name": "Sphere02_1_0_positions",
      "componentType": 5126,
      "count": 9406,
      "min": [
        -68.77579498291016,
        -187.9139862060547,
        -166.27479553222656
      ],
      "max": [
        147.38096618652344,
        70.78268432617188,
        166.27476501464844
      ],
      "type": "VEC3",
      "bufferView": 0,
      "byteOffset": 581736
    },
    {
      "name": "Sphere02_1_0_normals",
      "componentType": 5126,
      "count": 9406,
      "min": [
        -0.9999497532844543,
        -0.9999722838401794,
        -0.9959657788276672
      ],
      "max": [
        0.9999501705169678,
        0.9999721646308899,
        0.9959657788276672
      ],
      "type": "VEC3",
      "bufferView": 1,
      "byteOffset": 581736
    },
    {
      "name": "Sphere02_1_0_texcoords",
      "componentType": 5126,
      "count": 9406,
      "min": [
        0,
        0.625
      ],
      "max": [
        1,
        1
      ],
      "type": "VEC2",
      "bufferView": 2,
      "byteOffset": 387824
    },
    {
      "name": "Sphere02_1_0_indices",
      "componentType": 5123,
      "count": 14112,
      "min": [
        0
      ],
      "max": [
        9405
      ],
      "type": "SCALAR",
      "bufferView": 3,
      "byteOffset": 181380
    },
    {
      "name": "Sphere01_1_0_positions",
      "componentType": 5126,
      "count": 8539,
      "min": [
        -64.96762084960938,
        -184.57061767578125,
        -166.6024169921875
      ],
      "max": [
        170.34271240234375,
        76.51051330566406,
        166.6024169921875
      ],
      "type": "VEC3",
      "bufferView": 0,
      "byteOffset": 694608
    },
    {
      "name": "Sphere01_1_0_normals",
      "componentType": 5126,
      "count": 8539,
      "min": [
        -0.9996673464775085,
        -0.9992167353630066,
        -0.995134174823761
      ],
      "max": [
        0.9962186813354492,
        0.9970956444740295,
        0.9987419843673706
      ],
      "type": "VEC3",
      "bufferView": 1,
      "byteOffset": 694608
    },
    {
      "name": "Sphere01_1_0_texcoords",
      "componentType": 5126,
      "count": 8539,
      "min": [
        0,
        0.625
      ],
      "max": [
        1,
        1
      ],
      "type": "VEC2",
      "bufferView": 2,
      "byteOffset": 463072
    },
    {
      "name": "Sphere01_1_0_indices",
      "componentType": 5123,
      "count": 13776,
      "min": [
        0
      ],
      "max": [
        8538
      ],
      "type": "SCALAR",
      "bufferView": 3,
      "byteOffset": 209604
    },
    {
      "name": "LNB_1_0_positions",
      "componentType": 5126,
      "count": 181,
      "min": [
        156.55215454101562,
        17.522411346435547,
        -8.443368911743164
      ],
      "max": [
        173.4388885498047,
        34.409149169921875,
        8.44336986541748
      ],
      "type": "VEC3",
      "bufferView": 0,
      "byteOffset": 797076
    },
    {
      "name": "LNB_1_0_normals",
      "componentType": 5126,
      "count": 181,
      "min": [
        -0.9893106818199158,
        -0.9910828471183777,
        -1
      ],
      "max": [
        0.9893103837966919,
        0.9910828471183777,
        1
      ],
      "type": "VEC3",
      "bufferView": 1,
      "byteOffset": 797076
    },
    {
      "name": "LNB_1_0_texcoords",
      "componentType": 5126,
      "count": 181,
      "min": [
        -0.20000000298023224,
        0
      ],
      "max": [
        0.9753689765930176,
        1
      ],
      "type": "VEC2",
      "bufferView": 2,
      "byteOffset": 531384
    },
    {
      "name": "LNB_1_0_indices",
      "componentType": 5123,
      "count": 960,
      "min": [
        0
      ],
      "max": [
        180
      ],
      "type": "SCALAR",
      "bufferView": 3,
      "byteOffset": 237156
    },
    {
      "name": "GeoSphere02_1_0_positions",
      "componentType": 5126,
      "count": 7226,
      "min": [
        -75.30648040771484,
        -194.21487426757812,
        -169.62254333496094
      ],
      "max": [
        152.10842895507812,
        73.1194076538086,
        169.62254333496094
      ],
      "type": "VEC3",
      "bufferView": 0,
      "byteOffset": 799248
    },
    {
      "name": "GeoSphere02_1_0_normals",
      "componentType": 5126,
      "count": 7226,
      "min": [
        -0.9999364018440247,
        -0.9999542832374573,
        -0.9981174468994141
      ],
      "max": [
        0.9997758865356445,
        0.9954785108566284,
        0.9981174468994141
      ],
      "type": "VEC3",
      "bufferView": 1,
      "byteOffset": 799248
    },
    {
      "name": "GeoSphere02_1_0_texcoords",
      "componentType": 5126,
      "count": 7226,
      "min": [
        -0.10000000149011612,
        0
      ],
      "max": [
        0.9753689765930176,
        0.4253239929676056
      ],
      "type": "VEC2",
      "bufferView": 2,
      "byteOffset": 532832
    },
    {
      "name": "GeoSphere02_1_0_indices",
      "componentType": 5123,
      "count": 10920,
      "min": [
        0
      ],
      "max": [
        7225
      ],
      "type": "SCALAR",
      "bufferView": 3,
      "byteOffset": 239076
    }
  ],
  "asset": {
    "generator": "obj2gltf",
    "version": "2.0"
  },
  "buffers": [
    {
      "name": "DISH_ANTENNA_OBJ",
      "byteLength": 2623476,
      "uri": "data:application/octet-stream;base64,"
    }
  ],
  "bufferViews": [
    {
      "name": "bufferView_0",
      "buffer": 0,
      "byteLength": 885960,
      "byteOffset": 0,
      "byteStride": 12,
      "target": 34962
    },
    {
      "name": "bufferView_1",
      "buffer": 0,
      "byteLength": 885960,
      "byteOffset": 885960,
      "byteStride": 12,
      "target": 34962
    },
    {
      "name": "bufferView_2",
      "buffer": 0,
      "byteLength": 590640,
      "byteOffset": 1771920,
      "byteStride": 8,
      "target": 34962
    },
    {
      "name": "bufferView_3",
      "buffer": 0,
      "byteLength": 260916,
      "byteOffset": 2362560,
      "target": 34963
    }
  ],
  "materials": [
    {
      "name": "Balkon",
      "pbrMetallicRoughness": {
        "baseColorFactor": [
          0.5,
          0.5,
          0.5,
          1
        ],
        "metallicFactor": 0,
        "roughnessFactor": 1
      },
      "emissiveFactor": [
        0,
        0,
        0
      ],
      "alphaMode": "OPAQUE",
      "doubleSided": false
    },
    {
      "name": "wire_224143087",
      "pbrMetallicRoughness": {
        "baseColorFactor": [
          0.5,
          0.5,
          0.5,
          1
        ],
        "metallicFactor": 0,
        "roughnessFactor": 1
      },
      "emissiveFactor": [
        0,
        0,
        0
      ],
      "alphaMode": "OPAQUE",
      "doubleSided": false
    },
    {
      "name": "wire_177148026",
      "pbrMetallicRoughness": {
        "baseColorFactor": [
          0.5,
          0.5,
          0.5,
          1
        ],
        "metallicFactor": 0,
        "roughnessFactor": 1
      },
      "emissiveFactor": [
        0,
        0,
        0
      ],
      "alphaMode": "OPAQUE",
      "doubleSided": false
    },
    {
      "name": "wire_088177026",
      "pbrMetallicRoughness": {
        "baseColorFactor": [
          0.5,
          0.5,
          0.5,
          1
        ],
        "metallicFactor": 0,
        "roughnessFactor": 1
      },
      "emissiveFactor": [
        0,
        0,
        0
      ],
      "alphaMode": "OPAQUE",
      "doubleSided": false
    },
    {
      "name": "wire_154185229",
      "pbrMetallicRoughness": {
        "baseColorFactor": [
          0.5,
          0.5,
          0.5,
          1
        ],
        "metallicFactor": 0,
        "roughnessFactor": 1
      },
      "emissiveFactor": [
        0,
        0,
        0
      ],
      "alphaMode": "OPAQUE",
      "doubleSided": false
    },
    {
      "name": "wire_166229229",
      "pbrMetallicRoughness": {
        "baseColorFactor": [
          0.5,
          0.5,
          0.5,
          1
        ],
        "metallicFactor": 0,
        "roughnessFactor": 1
      },
      "emissiveFactor": [
        0,
        0,
        0
      ],
      "alphaMode": "OPAQUE",
      "doubleSided": false
    },
    {
      "name": "wire_213154229",
      "pbrMetallicRoughness": {
        "baseColorFactor": [
          0.5,
          0.5,
          0.5,
          1
        ],
        "metallicFactor": 0,
        "roughnessFactor": 1
      },
      "emissiveFactor": [
        0,
        0,
        0
      ],
      "alphaMode": "OPAQUE",
      "doubleSided": false
    },
    {
      "name": "wire_088143225",
      "pbrMetallicRoughness": {
        "baseColorFactor": [
          0.5,
          0.5,
          0.5,
          1
        ],
        "metallicFactor": 0,
        "roughnessFactor": 1
      },
      "emissiveFactor": [
        0,
        0,
        0
      ],
      "alphaMode": "OPAQUE",
      "doubleSided": false
    },
    {
      "name": "wire_087224198",
      "pbrMetallicRoughness": {
        "baseColorFactor": [
          0.5,
          0.5,
          0.5,
          1
        ],
        "metallicFactor": 0,
        "roughnessFactor": 1
      },
      "emissiveFactor": [
        0,
        0,
        0
      ],
      "alphaMode": "OPAQUE",
      "doubleSided": false
    }
  ],
  "meshes": [
    {
      "name": "Box01_1",
      "primitives": [
        {
          "attributes": {
            "POSITION": 0,
            "NORMAL": 1,
            "TEXCOORD_0": 2
          },
          "indices": 3,
          "material": 0,
          "mode": 4
        }
      ]
    },
    {
      "name": "Box02_1",
      "primitives": [
        {
          "attributes": {
            "POSITION": 4,
            "NORMAL": 5,
            "TEXCOORD_0": 6
          },
          "indices": 7,
          "material": 1,
          "mode": 4
        }
      ]
    },
    {
      "name": "Cylinder03_1",
      "primitives": [
        {
          "attributes": {
            "POSITION": 8,
            "NORMAL": 9,
            "TEXCOORD_0": 10
          },
          "indices": 11,
          "material": 2,
          "mode": 4
        }
      ]
    },
    {
      "name": "Cylinder04_1",
      "primitives": [
        {
          "attributes": {
            "POSITION": 12,
            "NORMAL": 13,
            "TEXCOORD_0": 14
          },
          "indices": 15,
          "material": 3,
          "mode": 4
        }
      ]
    },
    {
      "name": "Hedra01_1",
      "primitives": [
        {
          "attributes": {
            "POSITION": 16,
            "NORMAL": 17,
            "TEXCOORD_0": 18
          },
          "indices": 19,
          "material": 4,
          "mode": 4
        }
      ]
    },
    {
      "name": "Hedra02_1",
      "primitives": [
        {
          "attributes": {
            "POSITION": 20,
            "NORMAL": 21,
            "TEXCOORD_0": 22
          },
          "indices": 23,
          "material": 4,
          "mode": 4
        }
      ]
    },
    {
      "name": "Cylinder01_1",
      "primitives": [
        {
          "attributes": {
            "POSITION": 24,
            "NORMAL": 25,
            "TEXCOORD_0": 26
          },
          "indices": 27,
          "material": 5,
          "mode": 4
        }
      ]
    },
    {
      "name": "Sphere02_1",
      "primitives": [
        {
          "attributes": {
            "POSITION": 28,
            "NORMAL": 29,
            "TEXCOORD_0": 30
          },
          "indices": 31,
          "material": 6,
          "mode": 4
        }
      ]
    },
    {
      "name": "Sphere01_1",
      "primitives": [
        {
          "attributes": {
            "POSITION": 32,
            "NORMAL": 33,
            "TEXCOORD_0": 34
          },
          "indices": 35,
          "material": 7,
          "mode": 4
        }
      ]
    },
    {
      "name": "LNB_1",
      "primitives": [
        {
          "attributes": {
            "POSITION": 36,
            "NORMAL": 37,
            "TEXCOORD_0": 38
          },
          "indices": 39,
          "material": 7,
          "mode": 4
        }
      ]
    },
    {
      "name": "GeoSphere02_1",
      "primitives": [
        {
          "attributes": {
            "POSITION": 40,
            "NORMAL": 41,
            "TEXCOORD_0": 42
          },
          "indices": 43,
          "material": 8,
          "mode": 4
        }
      ]
    }
  ],
  "nodes": [
    {
      "name": "Box01",
      "mesh": 0
    },
    {
      "name": "Box02",
      "mesh": 1
    },
    {
      "name": "Cylinder03",
      "mesh": 2
    },
    {
      "name": "Cylinder04",
      "mesh": 3
    },
    {
      "name": "Hedra01",
      "mesh": 4
    },
    {
      "name": "Hedra02",
      "mesh": 5
    },
    {
      "name": "Cylinder01",
      "mesh": 6
    },
    {
      "name": "Sphere02",
      "mesh": 7
    },
    {
      "name": "Sphere01",
      "mesh": 8
    },
    {
      "name": "LNB",
      "mesh": 9
    },
    {
      "name": "GeoSphere02",
      "mesh": 10
    }
  ],
  "scene": 0,
  "scenes": [
    {
      "nodes": [
        0,
        1,
        2,
        3,
        4,
        5,
        6,
        7,
        8,
        9,
        10
      ]
    }
  ]
}
